PathFileType	4	(X/Y/Z)	3_coords_data.trc
DataRate	CameraRate	NumFrames	NumMarkers	Units	OrigDataRate	OrigDataStartFrame	OrigNumFrames
30.0	30.0	8	21	m	30.0	10	58
Frame#	Time	THUMB_TIP	THUMB_IP	THUMB_MCP	THUMB_CMC	INDEX_TIP	INDEX_DIP	INDEX_PIP	INDEX_MCP	MIDDLE_TIP	MIDDLE_DIP	MIDDLE_PIP	MIDDLE_MCP	RING_TIP	RING_DIP	RING_PIP	RING_MCP	PINKY_TIP	PINKY_DIP	PINKY_PIP	PINKY_MCP	WRIST
X1	Y1	Z1	X2	Y2	Z2	X3	Y3	Z3	X4	Y4	Z4	X5	Y5	Z5	X6	Y6	Z6	X7	Y7	Z7	X8	Y8	Z8	X9	Y9	Z9	X10	Y10	Z10	X11	Y11	Z11	X12	Y12	Z12	X13	Y13	Z13	X14	Y14	Z14	X15	Y15	Z15	X16	Y16	Z16	X17	Y17	Z17	X18	Y18	Z18	X19	Y19	Z19	X20	Y20	Z20	X21	Y21	Z21
9	0.3	-0.09624590301513672	-0.14434100341796874	0.9899149780273437	-0.08649410247802734	-0.12166200256347656	1.0039299926757812	-0.09116200256347656	-0.10037999725341797	1.0273199462890625	-0.09347309875488281	-0.06844509887695313	1.0488299560546874	-0.05867449951171875	-0.08205110168457032	0.9070640258789062	-0.062199600219726564	-0.0800958023071289	0.9310059814453125	-0.06760189819335938	-0.07741000366210937	0.95502001953125	-0.07694349670410157	-0.0719032974243164	0.9917570190429688	-0.05906679916381836	-0.043247200012207034	0.8981110229492187	-0.06176449966430664	-0.045119800567626954	0.9240289916992187	-0.06729850006103516	-0.04693880081176758	0.9530020141601563	-0.07646440124511719	-0.049108898162841794	0.9889219970703125	-0.047465000152587894	0.0025225400924682607	0.9238809814453125	-0.054823898315429685	-0.006053480148315429	0.9450900268554687	-0.06490229797363281	-0.015754899978637694	0.9673759765625	-0.07878340148925782	-0.02992849922180176	0.9984400024414063	-0.04815950012207031	0.02985499954223633	0.9655609741210938	-0.05757270050048828	0.01757309913635254	0.9788170166015625	-0.06656379699707031	0.005710350036621094	0.9905369873046875	-0.07684809875488281	-0.013449899673461914	1.0089400024414064	-0.1163290023803711	-0.04122549819946289	1.066010009765625
10	0.3333333333333333	-0.09608390045166015	-0.14423300170898437	0.9899180297851562	-0.0863988037109375	-0.12146800231933594	1.004	-0.09119059753417968	-0.10034600067138671	1.0274100341796875	-0.09357350158691406	-0.06831099700927734	1.0488800048828124	-0.05875279998779297	-0.0819352035522461	0.9071270141601563	-0.062279598236083984	-0.07997010040283203	0.9310040283203125	-0.06770500183105468	-0.07732080078125	0.9550339965820313	-0.07702839660644531	-0.07182499694824218	0.9917930297851563	-0.05918360137939453	-0.04322040176391601	0.8981649780273437	-0.06190950012207031	-0.04504359817504883	0.9241630249023437	-0.06741169738769531	-0.046868301391601565	0.9530910034179687	-0.07667829895019532	-0.04900270080566406	0.9890560302734375	-0.047590198516845705	0.002614510059356689	0.9239829711914063	-0.05496189880371094	-0.005968150138854981	0.9452239990234375	-0.06504000091552735	-0.015656999588012695	0.967447998046875	-0.07875789642333984	-0.02981959915161133	0.9983740234375	-0.04828110122680664	0.02988330078125	0.9656220092773438	-0.05769169998168945	0.017644399642944335	0.9788510131835938	-0.06666829681396484	0.0057739300727844235	0.9906060180664062	-0.07711070251464844	-0.013443900108337401	1.009	-0.11640499877929687	-0.041199100494384765	1.0659100341796874
11	0.36666666666666664	-0.09613339996337891	-0.14414700317382811	0.989718994140625	-0.08648860168457032	-0.12148999786376953	1.0038499755859376	-0.09133789825439453	-0.1003280029296875	1.027260009765625	-0.09369419860839844	-0.06836530303955078	1.0487900390625	-0.058972400665283205	-0.08189869689941406	0.9070020141601562	-0.062433799743652346	-0.07994869995117188	0.930885009765625	-0.06788430023193359	-0.07726909637451172	0.9549450073242187	-0.07726010131835938	-0.07180549621582032	0.9917440185546875	-0.05931010055541992	-0.04317020034790039	0.8980609741210938	-0.062039501190185545	-0.04501689910888672	0.9240670166015625	-0.06755860137939453	-0.046839298248291014	0.9529450073242187	-0.0769480972290039	-0.04894990158081055	0.988968994140625	-0.04768099975585938	0.0026868000030517577	0.9239390258789062	-0.05506470108032226	-0.005938449859619141	0.9451959838867188	-0.06515640258789063	-0.015629899978637694	0.967406982421875	-0.07883319854736329	-0.02982259941101074	0.9981669921875	-0.04840660095214844	0.029838300704956053	0.9655609741210938	-0.057839599609375	0.017576200485229492	0.9787940063476562	-0.06678569793701172	0.005730679988861084	0.9905430297851563	-0.07719159698486328	-0.013472800254821777	1.0089000244140625	-0.11661499786376953	-0.04104299926757812	1.0658599853515625
12	0.4	-0.09616259765625	-0.14416600036621094	0.9895490112304688	-0.08658609771728516	-0.12143299865722657	1.0037000122070312	-0.09146410369873047	-0.10033399963378906	1.02702001953125	-0.09380840301513672	-0.06835800170898437	1.0485799560546876	-0.05921860122680664	-0.08192120361328124	0.9068049926757813	-0.06271670150756836	-0.07998600006103515	0.9306489868164063	-0.06810289764404297	-0.07734429931640625	0.9547150268554687	-0.07751959991455078	-0.07181430053710937	0.9916510009765624	-0.05955039978027344	-0.04320809936523438	0.8978560180664062	-0.06223400115966797	-0.04500680160522461	0.9238250122070313	-0.06772550201416015	-0.046782901763916016	0.9527670288085938	-0.07718589782714844	-0.04898059844970703	0.9888150024414063	-0.04786109924316406	0.002662100076675415	0.92375	-0.05534870147705078	-0.005956200122833252	0.9450360107421875	-0.06538760375976563	-0.015589400291442871	0.9671859741210938	-0.07898259735107421	-0.029800300598144532	0.99802001953125	-0.04869150161743164	0.02975779914855957	0.9651920166015625	-0.05812289810180664	0.0175039005279541	0.9784660034179687	-0.06700409698486329	0.0056928801536560054	0.9902340087890625	-0.07724909973144531	-0.013413599967956543	1.0085599975585937	-0.11673200225830078	-0.04111909866333008	1.0656400146484375
13	0.43333333333333335	-0.0962886962890625	-0.1442779998779297	0.989375	-0.08670379638671875	-0.12152799987792968	1.00352001953125	-0.09158950042724609	-0.10044200134277344	1.0268399658203125	-0.09391889953613282	-0.06847820281982422	1.0483399658203125	-0.059407100677490235	-0.08210679626464844	0.90660302734375	-0.0628394012451172	-0.08014360046386719	0.9304849853515625	-0.06828099822998047	-0.07746119689941407	0.954530029296875	-0.07769429779052735	-0.07193409729003906	0.9913209838867187	-0.05964619827270508	-0.04340850067138672	0.8976859741210937	-0.062291400909423825	-0.04519910049438477	0.923635986328125	-0.06789089965820312	-0.04697050094604492	0.952583984375	-0.07730380249023437	-0.0490724983215332	0.98856298828125	-0.04796020126342773	0.00245917010307312	0.9235579833984375	-0.05539550018310547	-0.006132850170135498	0.9447429809570312	-0.06554669952392578	-0.015729999542236327	0.9669749755859375	-0.0791895980834961	-0.029952800750732422	0.9978729858398437	-0.04891450119018555	0.029562999725341797	0.96485302734375	-0.05830680084228516	0.017350400924682617	0.9781929931640625	-0.06718609619140625	0.005553750038146973	0.9899970092773438	-0.07748179626464843	-0.013527199745178223	1.0083800048828124	-0.11678800201416016	-0.041267799377441405	1.0654599609375
14	0.4666666666666667	-0.096393798828125	-0.1444810028076172	0.9892509765625	-0.08680699920654297	-0.12177200317382812	1.0033099975585937	-0.09172190093994141	-0.10062000274658203	1.026699951171875	-0.09406420135498048	-0.06867240142822266	1.048260009765625	-0.05968280029296875	-0.0824166030883789	0.9064439697265625	-0.06310250091552734	-0.08040509796142578	0.9304089965820312	-0.06847959899902344	-0.07771440124511719	0.9544290161132812	-0.07783650207519531	-0.07214810180664062	0.991208984375	-0.059786399841308596	-0.04378839874267578	0.8975009765625	-0.06247430038452149	-0.0454994010925293	0.9235239868164062	-0.06804309844970703	-0.0472489013671875	0.9524959716796875	-0.07761180114746094	-0.049305900573730466	0.9885349731445312	-0.04812239837646484	0.002114919900894165	0.923322998046875	-0.05562319946289063	-0.006478990077972412	0.9446270141601563	-0.06564669799804687	-0.016013099670410157	0.9667880249023437	-0.07948190307617188	-0.030218700408935546	0.9977830200195312	-0.049012901306152344	0.029281700134277344	0.9645980224609375	-0.05843099975585937	0.017064800262451173	0.9779140014648438	-0.06732469940185547	0.005278140068054199	0.9897440185546875	-0.07768119812011719	-0.01375450038909912	1.0082899780273438	-0.11693699645996093	-0.04146960067749023	1.0653900146484374
15	0.5	-0.09641310119628907	-0.14464599609375	0.9891710205078125	-0.08689320373535156	-0.12188500213623046	1.0032000122070313	-0.09178150177001954	-0.10077500152587891	1.0266099853515624	-0.09414219665527344	-0.06881529998779297	1.0480699462890626	-0.059901699066162106	-0.08265299987792969	0.9062940063476562	-0.0632599983215332	-0.08063980102539063	0.9301790161132812	-0.06869499969482422	-0.07797429656982421	0.954208984375	-0.07806230163574218	-0.0723062973022461	0.991031005859375	-0.06000469970703125	-0.04403459930419922	0.8973770141601562	-0.06264350128173828	-0.04577099990844727	0.9233209838867188	-0.06823490142822265	-0.04748609924316406	0.9522589721679687	-0.07760420227050781	-0.04954679870605469	0.988239013671875	-0.04821609878540039	0.001931249976158142	0.9231719970703125	-0.05567210006713867	-0.0066743998527526854	0.9443699951171876	-0.06578939819335937	-0.01628380012512207	0.9665859985351563	-0.07974690246582031	-0.030479700088500976	0.9977230224609375	-0.04917879867553711	0.029047000885009767	0.964406982421875	-0.05855780029296875	0.01682069969177246	0.977760009765625	-0.0674374008178711	0.005029699802398682	0.989572021484375	-0.0778198013305664	-0.013985400199890136	1.0080900268554687	-0.11699299621582031	-0.04158229827880859	1.0651600341796874
16	0.5333333333333333	-0.09648899841308593	-0.14473599243164062	0.9890399780273438	-0.08694819641113281	-0.12202100372314453	1.0030900268554688	-0.09192259979248046	-0.10088500213623047	1.026530029296875	-0.09427020263671874	-0.06890589904785156	1.048050048828125	-0.05999639892578125	-0.0827208023071289	0.906176025390625	-0.06334980010986328	-0.08075199890136718	0.9301119995117187	-0.06881089782714844	-0.07802320098876953	0.9541530151367188	-0.07809760284423828	-0.07242109680175782	0.99089501953125	-0.0600093994140625	-0.04408440017700195	0.897260986328125	-0.06271599960327148	-0.04579909896850586	0.9232520141601562	-0.06829119873046875	-0.04758290100097656	0.9521229858398438	-0.0776865005493164	-0.049646900177001956	0.9881270141601562	-0.04811880111694336	0.001896319985389709	0.9231810302734375	-0.05567020034790039	-0.00671373987197876	0.9444310302734376	-0.06582450103759765	-0.01627490043640137	0.9666069946289062	-0.07985140228271484	-0.030510499954223634	0.9975549926757813	-0.049229499816894534	0.028876699447631837	0.9642420043945312	-0.05863529968261719	0.016676000595092774	0.9775989990234375	-0.06750060272216797	0.004889500141143799	0.989469970703125	-0.077722900390625	-0.014001399993896484	1.0080499877929687	-0.1170500030517578	-0.041669498443603514	1.06506005859375
